<svg xmlns="http://www.w3.org/2000/svg" width="19.198" height="19.323" viewBox="0 0 19.198 19.323">
  <g id="a-00" transform="translate(-940.75 -645.034)">
    <path id="패스_126" data-name="패스 126" d="M959.2,664.073H941.5a.75.75,0,0,1-.75-.75V645.5a.75.75,0,0,1,.75-.75h12.978a.75.75,0,0,1,.538.228l4.72,4.864a.75.75,0,0,1,.212.522v12.959A.75.75,0,0,1,959.2,664.073Zm-16.948-1.5h16.2v-11.9l-4.287-4.418H942.25Z" transform="translate(0 0.284)" fill="#5f7ca5"/>
    <path id="사각형_162" data-name="사각형 162" d="M-.5-.5H11.188V9.263H-.5ZM10.188.5H.5V8.263h9.688Z" transform="translate(945.005 654.844)" fill="#5f7ca5"/>
    <path id="패스_127" data-name="패스 127" d="M953.516,652.01H943V645h9.568l.948,1.022Z" transform="translate(1.194 1.025)" fill="#5f7ca5" fill-rule="evenodd"/>
    <path id="선_156" data-name="선 156" d="M6,.5H0A.5.5,0,0,1-.5,0,.5.5,0,0,1,0-.5H6a.5.5,0,0,1,.5.5A.5.5,0,0,1,6,.5Z" transform="translate(947.032 657.828)" fill="#5f7ca5"/>
    <path id="선_157" data-name="선 157" d="M6,.5H0A.5.5,0,0,1-.5,0,.5.5,0,0,1,0-.5H6a.5.5,0,0,1,.5.5A.5.5,0,0,1,6,.5Z" transform="translate(947.032 660.828)" fill="#5f7ca5"/>
  </g>
</svg>
