<svg xmlns="http://www.w3.org/2000/svg" width="17" height="17" viewBox="0 0 17 17">
  <g id="a-07-active" fill="#173a6a">
    <path d="M 8.5 16.5 C 4.088789939880371 16.5 0.5 12.91121006011963 0.5 8.5 C 0.5 4.088789939880371 4.088789939880371 0.5 8.5 0.5 C 12.91121006011963 0.5 16.5 4.088789939880371 16.5 8.5 C 16.5 12.91121006011963 12.91121006011963 16.5 8.5 16.5 Z" stroke="none"/>
    <path d="M 8.5 1 C 4.364489555358887 1 1 4.364489555358887 1 8.5 C 1 12.6355094909668 4.364489555358887 16 8.5 16 C 12.6355094909668 16 16 12.6355094909668 16 8.5 C 16 4.364489555358887 12.6355094909668 1 8.5 1 M 8.5 0 C 13.19441986083984 0 17 3.805580139160156 17 8.5 C 17 13.19441986083984 13.19441986083984 17 8.5 17 C 3.805580139160156 17 0 13.19441986083984 0 8.5 C 0 3.805580139160156 3.805580139160156 0 8.5 0 Z" stroke="none" fill="#fff"/>
  </g>
</svg>
