<svg xmlns="http://www.w3.org/2000/svg" width="16.953" height="19.697" viewBox="0 0 16.953 19.697">
  <g id="ic01-active" transform="translate(-900.951 -640.537)">
    <path id="패스_27" data-name="패스 27" d="M902.385,652.563h14.087c.809,0,1.432.434,1.432,1v.523c0,.565-.622,1.043-1.432,1.043H902.385c-.746,0-1.435-.478-1.435-1.043v-.523c0-.565.688-1,1.435-1Z" transform="translate(0 5.105)" fill="#173a6a" fill-rule="evenodd"/>
    <path id="패스_28" data-name="패스 28" d="M917.6,648.6l-8.034,8.033a.235.235,0,0,1-.375,0L901.16,648.6a.232.232,0,0,1,0-.373l.994-1,6.416,6.355V641.471a.905.905,0,0,1,.87-.934h0a.909.909,0,0,1,.875.934v11.984l6.225-6.231,1.06,1a.232.232,0,0,1,0,.373Z" transform="translate(0.049)" fill="#173a6a" fill-rule="evenodd"/>
  </g>
</svg>
