<svg xmlns="http://www.w3.org/2000/svg" width="13.053" height="16.578" viewBox="0 0 13.053 16.578">
  <g id="ic04-hover" transform="translate(-1082.314 -141.711)">
    <path id="패스_7" data-name="패스 7" d="M566.237,691.912V677.441c0-.595-.616-1.052-1.417-1.052h-.277c-.8,0-1.418.457-1.418,1.052v14.471c0,.549.616,1.055,1.418,1.055h.277a1.29,1.29,0,0,0,1.417-1.055Z" transform="translate(519.189 -534.678)" fill="#173a6a" fill-rule="evenodd"/>
    <path id="패스_8" data-name="패스 8" d="M574.822,676.546l-8.01,7.948a.4.4,0,0,0,0,.37l8.01,7.947c.062.124.185.124.307,0l1.049-.985-7.086-7.148,7.086-7.084-1.049-1.048c-.122-.125-.245-.125-.307,0Z" transform="translate(519.189 -534.678)" fill="#5f7ca5" fill-rule="evenodd"/>
  </g>
</svg>
