<svg xmlns="http://www.w3.org/2000/svg" width="25.234" height="22.097" viewBox="0 0 25.234 22.097">
  <g id="ic10-hover" transform="translate(-987.79 -178.903)">
    <path id="ic10-hover-2" data-name="ic10-hover" d="M33.953,561.1c.493-.431.308-.8-.37-.8H31.365a8.933,8.933,0,0,1,15.22-6.348L49.542,551a12.982,12.982,0,0,0-9.305-3.883A13.189,13.189,0,0,0,27.113,560.3H24.957c-.679,0-.864.369-.371.8l1.911,1.972,1.91,1.911a1.314,1.314,0,0,0,1.726,0l1.909-1.911Z" transform="translate(963.482 -368.211)" fill="#173a6a" fill-rule="evenodd"/>
    <text id="_-90_" data-name="-90′" transform="translate(998.79 199)" fill="#5f7ca5" font-size="8" font-family="NotoSansCJKkr-Light, Noto Sans CJK KR" font-weight="300"><tspan x="0" y="0">-90′</tspan></text>
  </g>
</svg>
