<svg xmlns="http://www.w3.org/2000/svg" width="26" height="22.097" viewBox="0 0 26 22.097">
  <g id="ic10-active" transform="translate(-987.79 -103.903)">
    <path id="패스_13" data-name="패스 13" d="M33.953,561.1c.493-.431.308-.8-.37-.8H31.365a8.933,8.933,0,0,1,15.22-6.348L49.542,551a12.982,12.982,0,0,0-9.305-3.883A13.189,13.189,0,0,0,27.113,560.3H24.957c-.679,0-.864.369-.371.8l1.911,1.972,1.91,1.911a1.314,1.314,0,0,0,1.726,0l1.909-1.911Z" transform="translate(963.482 -443.211)" fill="#173a6a" fill-rule="evenodd"/>
    <text id="_-90_" data-name="-90′" transform="translate(998.79 124)" fill="#173a6a" font-size="8" font-family="NotoSansCJKkr-Medium, Noto Sans CJK KR" font-weight="500"><tspan x="0" y="0">-90′</tspan></text>
  </g>
</svg>
