<svg xmlns="http://www.w3.org/2000/svg" width="25.234" height="22.097" viewBox="0 0 25.234 22.097">
  <g id="ic11-hover" transform="translate(-1028.79 -178.903)">
    <path id="패스_15" data-name="패스 15" d="M66.763,561.1c-.493-.431-.307-.8.37-.8h2.218a8.933,8.933,0,0,0-15.22-6.348L51.174,551a12.984,12.984,0,0,1,9.305-3.883A13.189,13.189,0,0,1,73.6,560.3H75.76c.678,0,.863.369.37.8l-1.91,1.972-1.911,1.911a1.314,1.314,0,0,1-1.726,0l-1.909-1.911Z" transform="translate(977.616 -368.211)" fill="#173a6a" fill-rule="evenodd"/>
    <text id="_90_" data-name="90′" transform="translate(1030.79 199)" fill="#5f7ca5" font-size="8" font-family="NotoSansCJKkr-Light, Noto Sans CJK KR" font-weight="300"><tspan x="0" y="0">90′</tspan></text>
  </g>
</svg>
