<svg xmlns="http://www.w3.org/2000/svg" width="21.798" height="21.544" viewBox="0 0 21.798 21.544">
  <g id="ic16-active" transform="translate(-345.386 -979.742)">
    <path id="패스_30" data-name="패스 30" d="M366.4,986.126a.784.784,0,0,1-.784-.783v-4.034h-4.709a.784.784,0,0,1,0-1.567H366.4a.784.784,0,0,1,.784.783v4.818A.784.784,0,0,1,366.4,986.126Z" fill="#173a6a"/>
    <path id="패스_31" data-name="패스 31" d="M366.4,1001.286h-5.493a.784.784,0,0,1,0-1.567h4.709V995.4a.784.784,0,0,1,1.568,0v5.1A.784.784,0,0,1,366.4,1001.286Z" fill="#173a6a"/>
    <path id="패스_32" data-name="패스 32" d="M351.14,1001.286h-4.97a.784.784,0,0,1-.784-.783v-5.1a.784.784,0,0,1,1.567,0v4.316h4.187a.784.784,0,1,1,0,1.567Z" fill="#173a6a"/>
    <path id="패스_33" data-name="패스 33" d="M346.17,986.126a.784.784,0,0,1-.784-.783v-4.818a.784.784,0,0,1,.784-.783h4.97a.784.784,0,1,1,0,1.567h-4.187v4.034A.784.784,0,0,1,346.17,986.126Z" fill="#173a6a"/>
    <path id="패스_29" data-name="패스 29" d="M364.286,998.741H350.2a.326.326,0,0,1-.325-.326V984.5a.326.326,0,0,1,.325-.325h14.089C364.465,984.178,364.465,998.741,364.286,998.741Z" transform="translate(-0.957 -0.946)" fill="#fff"/>
    <path id="패스_29_-_윤곽선" data-name="패스 29 - 윤곽선" d="M364.286,999.241H350.2a.827.827,0,0,1-.825-.826V984.5a.826.826,0,0,1,.825-.825h14.089a.519.519,0,0,1,.507.448c.008.044.015.1.022.17.01.114.02.273.029.487.016.389.031.948.042,1.663.022,1.323.034,3.1.034,5.014s-.012,3.691-.034,5.014c-.012.715-.026,1.274-.042,1.663-.009.214-.018.373-.029.487-.007.072-.014.126-.022.17A.519.519,0,0,1,364.286,999.241Zm-13.914-1h13.469c.106-2.073.106-11.49,0-13.563H350.372Z" transform="translate(-0.957 -0.946)" fill="#173a6a"/>
  </g>
</svg>
