<svg xmlns="http://www.w3.org/2000/svg" width="20" height="18" viewBox="0 0 20 18">
  <g id="ic20-active" transform="translate(-444 -146)">
    <path id="합치기_1" data-name="합치기 1" d="M-970.9,17H-980a2,2,0,0,1-2-2V6a2,2,0,0,1,2-2h16a2,2,0,0,1,2,2v9a2,2,0,0,1-2,2h-1.563l-5.338,5Z" transform="translate(1426 142)" fill="#fff"/>
    <path id="합치기_1_-_윤곽선" data-name="합치기 1 - 윤곽선" d="M-970.9,22V19h1.009l.552-.517,1.025,1.095-.482.452h0l0,0-.244.228-.356-.381V20h-1.258l.885.945Zm1.5-4h-1.5V15.5h1.5Zm-2.5-1h-1V15.5h1Zm-2,0h-1V15.5h1Zm-2,0h-1V15.5h1Zm-2,0h-1V15.5h1Zm-2,0h-.285l-.019,0h-.006a1.987,1.987,0,0,1-.66-.188l.654-1.35A.493.493,0,0,0-980,15.5h.1Zm-1.727-.837a2,2,0,0,1-.156-.256h0l0,0h0l0-.007h0l0,0h0l0-.01,0,0h0l0-.007h0l0,0,0,0h0l0-.007,0,0,0,0h0l0,0v0l0,0,0,0h0l0,0v0l0,0h0l0-.006v0l0,0h0V15.8l0,0h0v-.01h0v-.013h0v-.01l0,0,0,0v-.007l0,0v-.01l0,0v-.023l0,0V15.7l0,0v-.01h0v-.01h0l0,0v-.009h0l0,0v-.006h0l0-.007V15.63h0l0,0v-.009h0l0,0V15.6h0l0-.007v-.007h0l0-.005a.006.006,0,0,0,0,0v0h0l0-.008v-.006h0l0-.008v-.006h0l0-.006s0,0,0,0v0h0l0-.008s0,0,0,0h0l0-.011v0h0l0-.012h0l0-.015h0a1.989,1.989,0,0,1-.044-.241l1.489-.179a.486.486,0,0,0,.089.228Zm1.127-1.922H-982v-1h1.5Zm0-2H-982v-1h1.5Zm0-2H-982v-1h1.5Zm0-2H-982v-1h1.5Zm0-2H-982V6h0V6s0,0,0,0v0a.027.027,0,0,0,0,0V5.981s0,0,0,0a.009.009,0,0,1,0,0,.027.027,0,0,1,0,0,.027.027,0,0,0,0,0s0,0,0,0,0,0,0,0,0,0,0,0a.018.018,0,0,1,0,0,.029.029,0,0,0,0,0s0,0,0,0a.028.028,0,0,1,0,0s0,0,0,0h0s0,0,0,0a.026.026,0,0,1,0,0,.014.014,0,0,1,0,0,.013.013,0,0,0,0,0,.028.028,0,0,0,0,0,.017.017,0,0,1,0,0,.014.014,0,0,1,0,0,.018.018,0,0,1,0,0,.019.019,0,0,0,0,0s0,0,0,0a.028.028,0,0,1,0,0s0,0,0,0,0,0,0,0,0,0,0,0,0,0,0,0,0,0,0,0a.021.021,0,0,0,0,0,.016.016,0,0,0,0,0h0v0s0,0,0,0a.026.026,0,0,1,0,0s0,0,0,0a.027.027,0,0,0,0,0,.018.018,0,0,0,0,0s0,0,0,0v0s0,0,0,0v0a.026.026,0,0,1,0,0,.025.025,0,0,0,0,0v0a.011.011,0,0,0,0,0V5.835s0,0,0,0v0h0v0a.017.017,0,0,0,0,0,.018.018,0,0,1,0,0v0a.018.018,0,0,1,0,0V5.787a.017.017,0,0,1,0,0V5.766a.022.022,0,0,0,0,0V5.75a.026.026,0,0,0,0,0V5.72h0l0-.017s0,0,0,0v0a.007.007,0,0,1,0,0V5.682a.013.013,0,0,0,0,0,.01.01,0,0,0,0,0s0,0,0,0v0h0l.007-.041h0a1.985,1.985,0,0,1,.107-.37l1.393.556A.5.5,0,0,0-980.5,6Zm.182-.627-.958-1.155q.057-.047.118-.091h0l.01-.007,0,0,0,0,0,0,0,0,0,0,0,0,0,0,0,0,0,0,0,0,0,0,0,0,0,0,0,0,0,0,0,0,.006,0h0l0,0a1.988,1.988,0,0,1,.708-.286l.284,1.473A.494.494,0,0,0-980.318,5.614Zm1.935-.114h-1V4h1Zm2,0h-1V4h1Zm2,0h-1V4h1Zm2,0h-1V4h1Zm2,0h-1V4h1Zm2,0h-1V4h1Zm2,0h-1V4h1Zm2,0h-1V4h1Zm.745.155a.5.5,0,0,0-.209-.132l.455-1.429a2,2,0,0,1,.839.525Zm1.638.82h-1.5V6a.509.509,0,0,0-.017-.131l1.449-.389q.014.052.025.106h0l0,.012h0v0h0l0,.008h0v0h0v0h0v.011h0v.011a.027.027,0,0,0,0,0v.037h0V5.7h0v.011h0V5.72a.024.024,0,0,1,0,0h0v.005a.015.015,0,0,0,0,0v0h0v.005a.006.006,0,0,1,0,0v0h0v.011h0V5.77a.033.033,0,0,0,0,0v0h0v0a.015.015,0,0,0,0,0,.017.017,0,0,0,0,0h0V5.8s0,0,0,0v0h0V5.81a.035.035,0,0,0,0,0,.037.037,0,0,1,0,0h0V5.83h0v.011a.036.036,0,0,1,0,0v.005s0,0,0,0a.018.018,0,0,1,0,0v.013s0,0,0,0,0,0,0,0a.026.026,0,0,0,0,0,.025.025,0,0,0,0,0v0s0,0,0,0a.02.02,0,0,1,0,0V5.9s0,0,0,0a.027.027,0,0,1,0,0,.033.033,0,0,1,0,0h0v0s0,0,0,0,0,0,0,0h0s0,0,0,0a.027.027,0,0,0,0,0v0h0v0h0v0s0,0,0,0h0s0,0,0,0h0s0,0,0,0a.027.027,0,0,0,0,0s0,0,0,0h0v0s0,0,0,0,0,0,0,0h0v0h0s0,0,0,0,0,0,0,0h0v.478Zm0,2h-1.5v-1h1.5Zm0,2h-1.5v-1h1.5Zm0,2h-1.5v-1h1.5Zm0,2h-1.5v-1h1.5Zm-.519,1.87-1.11-1.008a.5.5,0,0,0,.116-.217l1.458.351a2,2,0,0,1-.464.874ZM-964,17h-.332V15.5H-964a.5.5,0,0,0,.164-.027l.491,1.417h0l0,0h-.008l-.007,0h-.068l-.006,0h-.008s0,0-.006,0h-.006l-.009,0s0,0,0,0h0l-.015,0h0l-.009,0h0l-.012,0h0l-.018,0h0l-.015,0h0l-.027.006h0l-.015,0h0l-.009,0h-.006l-.009,0h-.006l-.009,0h-.006l-.009,0h-.006l-.012,0h0l-.009,0H-964Zm-2.125.526-1.025-1.095.994-.931h.823V17h-.23Zm-1.46,1.367L-968.61,17.8l.73-.684,1.025,1.095-.373.35h0l0,0h0l-.351.328Z" transform="translate(1426 142)" fill="#173a6a"/>
  </g>
</svg>
