<svg xmlns="http://www.w3.org/2000/svg" width="27.543" height="27.544" viewBox="0 0 27.543 27.544">
  <path id="ic23" d="M552.784,182.146A10.551,10.551,0,0,1,560.425,179a10.806,10.806,0,0,1,7.58,18.485,10.783,10.783,0,0,1-15.282-.061,10.652,10.652,0,0,1-3.144-7.641,10.811,10.811,0,0,1,3.205-7.641Zm3.265,7.025a.642.642,0,0,0,0,1.232l6.718,3.7v-8.566Zm4.376-13.126a13.77,13.77,0,0,0-9.8,23.478,13.771,13.771,0,0,0,23.538-9.675,13.783,13.783,0,0,0-13.74-13.8Z" transform="translate(-546.622 -176.045)" fill="#5f7ca5" fill-rule="evenodd"/>
</svg>
