<svg xmlns="http://www.w3.org/2000/svg" width="27.481" height="27.544" viewBox="0 0 27.481 27.544">
  <path id="ic24-active" d="M515.69,182.146A10.761,10.761,0,0,0,508.048,179a10.6,10.6,0,0,0-7.641,3.2,10.309,10.309,0,0,0-3.141,7.64,10.755,10.755,0,0,0,3.141,7.641,11.024,11.024,0,0,0,7.641,3.144,10.835,10.835,0,0,0,10.784-10.846,11.025,11.025,0,0,0-3.142-7.641Zm-3.329,7.025a.641.641,0,0,1,0,1.232l-6.717,3.7v-8.566Zm-4.376-13.126a13.772,13.772,0,0,1,.063,27.544,13.674,13.674,0,0,1-13.741-13.741,13.782,13.782,0,0,1,13.678-13.8Z" transform="translate(-494.307 -176.045)" fill="#173a6a" fill-rule="evenodd"/>
</svg>
