<svg xmlns="http://www.w3.org/2000/svg" width="27.481" height="27.543" viewBox="0 0 27.481 27.543">
  <g id="ic26-hover" transform="translate(-990.099 -960.229)">
    <path id="패스_44" data-name="패스 44" d="M916.685,497.9a10.765,10.765,0,0,0-7.643-3.142,10.6,10.6,0,0,0-7.641,3.2,10.311,10.311,0,0,0-3.141,7.64,10.761,10.761,0,0,0,3.141,7.641,11.029,11.029,0,0,0,7.641,3.144,10.833,10.833,0,0,0,10.784-10.847,11.026,11.026,0,0,0-3.141-7.64Zm-7.706-6.1a13.772,13.772,0,0,1,.063,27.543A13.674,13.674,0,0,1,895.3,505.6a13.78,13.78,0,0,1,13.678-13.8Z" transform="translate(94.798 468.428)" fill="#173a6a" fill-rule="evenodd"/>
    <rect id="사각형_43" data-name="사각형 43" width="12" height="2" transform="translate(997.798 973.428)" fill="#173a6a"/>
  </g>
</svg>
