<svg xmlns="http://www.w3.org/2000/svg" width="20" height="20" viewBox="0 0 20 20">
  <g id="ic30-active" transform="translate(1.002 1.5)">
    <rect id="사각형_19" data-name="사각형 19" width="17" height="17" transform="translate(0.498)" fill="#fff"/>
    <path id="사각형_19_-_윤곽선" data-name="사각형 19 - 윤곽선" d="M0,0V17H17V0H0M-1.5-1.5h20v20h-20Z" transform="translate(0.498)" fill="#173a6a"/>
    <path id="사각형_36" data-name="사각형 36" d="M0,0H2V1H1V3H0ZM3,0H5V1H3ZM6,0H8V1H6ZM9,0h3V3H10V2h1V1H9ZM7,2H9V3H7ZM4,2H6V3H4ZM1,2H3V3H1Z" transform="translate(3.12 12)" fill="#173a6a"/>
  </g>
</svg>
