<svg xmlns="http://www.w3.org/2000/svg" width="21.798" height="21.544" viewBox="0 0 21.798 21.544">
  <g id="ic31-active" transform="translate(-1419.651 -308.25)">
    <g id="그룹_170" data-name="그룹 170" transform="translate(1074.265 -671.492)">
      <rect id="사각형_135" data-name="사각형 135" width="16" height="16" transform="translate(347.886 982.786)" fill="#fff"/>
      <path id="사각형_135_-_윤곽선" data-name="사각형 135 - 윤곽선" d="M0-.75H16a.75.75,0,0,1,.75.75V16a.75.75,0,0,1-.75.75H0A.75.75,0,0,1-.75,16V0A.75.75,0,0,1,0-.75ZM15.25.75H.75v14.5h14.5Z" transform="translate(347.886 982.786)" fill="#a4bcdf"/>
      <path id="패스_30" data-name="패스 30" d="M366.4,985.626a.284.284,0,0,1-.284-.283v-4.534h-5.209a.284.284,0,0,1,0-.567H366.4a.284.284,0,0,1,.284.283v4.818A.284.284,0,0,1,366.4,985.626Z" fill="#fff"/>
      <path id="패스_30_-_윤곽선" data-name="패스 30 - 윤곽선" d="M366.4,986.126a.784.784,0,0,1-.784-.783v-4.034h-4.709a.784.784,0,0,1,0-1.567H366.4a.784.784,0,0,1,.784.783v4.818A.784.784,0,0,1,366.4,986.126Z" fill="#173a6a"/>
      <path id="패스_31" data-name="패스 31" d="M366.4,1000.786h-5.493a.284.284,0,0,1,0-.567h5.209V995.4a.284.284,0,0,1,.568,0v5.1A.284.284,0,0,1,366.4,1000.786Z" fill="#fff"/>
      <path id="패스_31_-_윤곽선" data-name="패스 31 - 윤곽선" d="M366.4,1001.286h-5.493a.784.784,0,0,1,0-1.567h4.709V995.4a.784.784,0,0,1,1.568,0v5.1A.784.784,0,0,1,366.4,1001.286Z" fill="#173a6a"/>
      <path id="패스_32" data-name="패스 32" d="M351.14,1000.786h-4.97a.284.284,0,0,1-.284-.283v-5.1a.284.284,0,0,1,.567,0v4.816h4.687a.284.284,0,1,1,0,.567Z" fill="#fff"/>
      <path id="패스_32_-_윤곽선" data-name="패스 32 - 윤곽선" d="M351.14,1001.286h-4.97a.784.784,0,0,1-.784-.783v-5.1a.784.784,0,0,1,1.567,0v4.316h4.187a.784.784,0,1,1,0,1.567Z" fill="#173a6a"/>
      <path id="패스_33" data-name="패스 33" d="M346.17,985.626a.284.284,0,0,1-.284-.283v-4.818a.284.284,0,0,1,.284-.283h4.97a.284.284,0,1,1,0,.567h-4.687v4.534A.283.283,0,0,1,346.17,985.626Z" fill="#fff"/>
      <path id="패스_33_-_윤곽선" data-name="패스 33 - 윤곽선" d="M346.17,986.126a.784.784,0,0,1-.784-.783v-4.818a.784.784,0,0,1,.784-.783h4.97a.784.784,0,1,1,0,1.567h-4.187v4.034A.784.784,0,0,1,346.17,986.126Z" fill="#173a6a"/>
    </g>
    <path id="선_98" data-name="선 98" d="M3,4.75a.749.749,0,0,1-.6-.3l-3-4A.75.75,0,0,1-.45-.6.75.75,0,0,1,.6-.45l3,4A.75.75,0,0,1,3,4.75Z" transform="translate(1421.39 309.5)" fill="#173a6a"/>
    <path id="선_100" data-name="선 100" d="M4,4.75a.748.748,0,0,1-.53-.22l-4-4A.75.75,0,0,1-.53-.53.75.75,0,0,1,.53-.53l4,4A.75.75,0,0,1,4,4.75Z" transform="translate(1436.39 324.5)" fill="#173a6a"/>
    <path id="선_99" data-name="선 99" d="M0,4.75a.748.748,0,0,1-.53-.22.75.75,0,0,1,0-1.061l4-4a.75.75,0,0,1,1.061,0A.75.75,0,0,1,4.53.53l-4,4A.748.748,0,0,1,0,4.75Z" transform="translate(1436.39 309.5)" fill="#173a6a"/>
    <path id="선_101" data-name="선 101" d="M0,4.75a.748.748,0,0,1-.53-.22.75.75,0,0,1,0-1.061l4-4a.75.75,0,0,1,1.061,0A.75.75,0,0,1,4.53.53l-4,4A.748.748,0,0,1,0,4.75Z" transform="translate(1421.39 324.5)" fill="#173a6a"/>
  </g>
</svg>
