<svg xmlns="http://www.w3.org/2000/svg" width="12" height="12" viewBox="0 0 12 12">
  <g transform="translate(-1410.82 -283)">
    <path id="sel7-s5" d="M5,0l5,10L5,6.125,0,10Z" transform="translate(1421.82 284) rotate(90)" fill="#fff"/>
    <path id="sel7-s5_-_윤곽선" data-name="sel7-s5 - 윤곽선" d="M5,0,0,10,5,6.125,10,10,5,0M5-1a1,1,0,0,1,.894.553l5,10A1,1,0,0,1,9.387,10.79L5,7.39.613,10.79a1,1,0,0,1-1.247-.018,1,1,0,0,1-.26-1.22l5-10A1,1,0,0,1,5-1Z" transform="translate(1421.82 284) rotate(90)" fill="#fff"/>
  </g>
</svg>
