<svg xmlns="http://www.w3.org/2000/svg" width="20" height="14" viewBox="0 0 20 14">
  <g id="sel6-center" transform="translate(-1684.5 -224.5)">
    <path id="선_122" data-name="선 122" d="M18,1H0A1,1,0,0,1-1,0,1,1,0,0,1,0-1H18a1,1,0,0,1,1,1A1,1,0,0,1,18,1Z" transform="translate(1685.5 225.5)" fill="#5f7ca5"/>
    <path id="선_120" data-name="선 120" d="M18,1H0A1,1,0,0,1-1,0,1,1,0,0,1,0-1H18a1,1,0,0,1,1,1A1,1,0,0,1,18,1Z" transform="translate(1685.5 237.5)" fill="#5f7ca5"/>
    <path id="선_121" data-name="선 121" d="M11,1H0A1,1,0,0,1-1,0,1,1,0,0,1,0-1H11a1,1,0,0,1,1,1A1,1,0,0,1,11,1Z" transform="translate(1689.5 231.5)" fill="#5f7ca5"/>
  </g>
</svg>
