<svg xmlns="http://www.w3.org/2000/svg" width="11" height="11" viewBox="0 0 11 11">
  <g transform="translate(-1440.64 -264)">
    <path id="sel7-s2" d="M4.5,0,9,9H0Z" transform="translate(1450.64 265) rotate(90)" fill="#5f7ca5"/>
    <path id="sel7-s2_-_윤곽선" data-name="sel7-s2 - 윤곽선" d="M4.5,0,0,9H9L4.5,0m0-1a1,1,0,0,1,.894.553l4.5,9A1,1,0,0,1,9,10H0a1,1,0,0,1-.851-.474,1,1,0,0,1-.044-.973l4.5-9A1,1,0,0,1,4.5-1Z" transform="translate(1450.64 265) rotate(90)" fill="#5f7ca5"/>
  </g>
</svg>
