<svg xmlns="http://www.w3.org/2000/svg" width="21.15" height="17.77" viewBox="0 0 21.15 17.77">
  <g id="a-01-hover" transform="translate(-888.901 -737.526)">
    <g id="그룹_176" data-name="그룹 176" transform="translate(889.631 738.593)">
      <path id="패스_93" data-name="패스 93" d="M909.208,753.909a.793.793,0,0,1-.47-.153l-18.823-13.783a.8.8,0,1,1,.943-1.289l18.825,13.783a.8.8,0,0,1-.474,1.442Z" transform="translate(-889.587 -738.529)" fill="#fff"/>
    </g>
    <g id="그룹_177" data-name="그룹 177" transform="translate(889.7 737.526)">
      <path id="패스_94" data-name="패스 94" d="M898.765,737.526l-3.7,2.712,2.855,2.091,6.605,4.836.849-.622,2.856-2.091Z" transform="translate(-889.304 -737.526)" fill="#00d4ff"/>
      <path id="패스_95" data-name="패스 95" d="M896.911,743.1,894.055,741l-4.4,3.225,2.856,2.091,6.6,4.837,4.4-3.225Z" transform="translate(-889.651 -737.303)" fill="#00d4ff"/>
    </g>
    <g id="그룹_178" data-name="그룹 178" transform="translate(888.901 746.772)">
      <path id="패스_96" data-name="패스 96" d="M899.16,752.95l-8.988-6.582a.8.8,0,0,0-.944,1.289l9.461,6.927a.8.8,0,0,0,.943,0l6.736-4.933-1.352-.989Z" transform="translate(-888.901 -746.214)" fill="#fff"/>
      <path id="패스_97" data-name="패스 97" d="M908.038,747.657a.8.8,0,0,0-.944-1.289l-1.78,1.3,1.353.991Z" transform="translate(-887.848 -746.214)" fill="#fff"/>
    </g>
  </g>
</svg>
