<svg xmlns="http://www.w3.org/2000/svg" width="25.214" height="11" viewBox="0 0 25.214 11">
  <g id="a-09-active" transform="translate(-946.786 -224.5)">
    <path id="선_107" data-name="선 107" d="M21,1.5H0A1.5,1.5,0,0,1-1.5,0,1.5,1.5,0,0,1,0-1.5H21A1.5,1.5,0,0,1,22.5,0,1.5,1.5,0,0,1,21,1.5Z" transform="translate(948.286 230)" fill="#00d4ff"/>
    <path id="다각형_2" data-name="다각형 2" d="M4.5,0,9,7H0Z" transform="translate(971 225.5) rotate(90)" fill="#00d4ff"/>
    <path id="다각형_2_-_윤곽선" data-name="다각형 2 - 윤곽선" d="M4.5-1a1,1,0,0,1,.841.459l4.5,7A1,1,0,0,1,9,8H0a1,1,0,0,1-.878-.521,1,1,0,0,1,.037-1.02l4.5-7A1,1,0,0,1,4.5-1ZM7.168,6,4.5,1.849,1.832,6Z" transform="translate(971 225.5) rotate(90)" fill="#00d4ff"/>
  </g>
</svg>
