<svg xmlns="http://www.w3.org/2000/svg" width="22.164" height="16.308" viewBox="0 0 22.164 16.308">
  <g id="a-10" transform="translate(-833.759 -266.472)">
    <g id="그룹_186" data-name="그룹 186" transform="translate(842.277 267.415)">
      <path id="패스_37" data-name="패스 37" d="M898.642,631.974l-3.62,1.392,1.392-3.62,6.684-6.685,2.228,2.228Z" transform="translate(-895.023 -619.72)" fill="#fff"/>
      <rect id="사각형_31" data-name="사각형 31" width="3.15" height="3.15" transform="translate(9.19 2.228) rotate(-45)" fill="#fff"/>
    </g>
    <path id="패스_98" data-name="패스 98" d="M2.771,13.431a3.574,3.574,0,0,1-1.507-.306C.51,12.776-.7,11.793-.366,9.133A4.415,4.415,0,0,1,1.165,6.168,8.332,8.332,0,0,1,3.556,4.892c1.592-.63,2.4-.948,1.729-2.781C4.614,1.047,3.895.5,3.147.5,1.691.491.434,2.432.422,2.451a.5.5,0,0,1-.69.153.5.5,0,0,1-.154-.689C-.359,1.816,1.141-.51,3.15-.5c1.125.006,2.138.721,3.011,2.126l.026.042.017.047c1.041,2.792-.724,3.49-2.281,4.107C2.443,6.408.911,7.015.626,9.26.49,10.323.564,11.7,1.684,12.218a3.686,3.686,0,0,0,2.649-.075,7.039,7.039,0,0,0,2.8-1.838.5.5,0,1,1,.738.675,7.957,7.957,0,0,1-3.214,2.108A5.822,5.822,0,0,1,2.771,13.431Z" transform="matrix(0.875, 0.485, -0.485, 0.875, 840.708, 267.152)" fill="#fff"/>
  </g>
</svg>
