<svg xmlns="http://www.w3.org/2000/svg" width="22.021" height="12.749" viewBox="0 0 22.021 12.749">
  <g id="a-11-hover" transform="translate(-1010.583 -223.807)">
    <path id="패스_101" data-name="패스 101" d="M-6.348,6h6.3L-2.174,8.546H-8.417Z" transform="translate(1019 227.51)" fill="#00d4ff"/>
    <g id="그룹_189" data-name="그룹 189" transform="translate(1018.576 224.307)">
      <path id="패스_99" data-name="패스 99" d="M-2.931,6h3.4L-1.658,8.546H-5Z" transform="translate(5 3.203)" fill="#00d4ff"/>
      <path id="패스_99_-_윤곽선" data-name="패스 99 - 윤곽선" d="M-2.931,5.5h3.4a.5.5,0,0,1,.384.82L-1.274,8.867a.5.5,0,0,1-.384.18H-5a.5.5,0,0,1-.451-.285.5.5,0,0,1,.063-.53l2.069-2.546A.5.5,0,0,1-2.931,5.5ZM-.6,6.5h-2.09L-3.95,8.046h2.058Z" transform="translate(5 3.203)" fill="#00d4ff"/>
      <path id="패스_100" data-name="패스 100" d="M2.132-.088h4.35l-6.5,7.714H-4.552Z" transform="translate(7.046 0.088)" fill="#00d4ff"/>
      <path id="패스_100_-_윤곽선" data-name="패스 100 - 윤곽선" d="M2.132-.588h4.35A.5.5,0,0,1,6.936-.3a.5.5,0,0,1-.071.533L.361,7.948a.5.5,0,0,1-.382.178H-4.552a.5.5,0,0,1-.455-.292A.5.5,0,0,1-4.93,7.3L1.754-.415A.5.5,0,0,1,2.132-.588Zm3.275,1H2.36L-3.457,7.126h3.2Z" transform="translate(7.046 0.088)" fill="#00d4ff"/>
    </g>
  </g>
</svg>
