<svg xmlns="http://www.w3.org/2000/svg" width="17" height="17" viewBox="0 0 17 17">
  <g id="a-15-active" transform="translate(-534.298 -302.5)">
    <g id="그룹_339" data-name="그룹 339" transform="translate(534.798 303)">
      <g id="그룹_192" data-name="그룹 192" transform="translate(0)">
        <path id="패스_105" data-name="패스 105" d="M0,0H16V16H0Z" fill="#00d4ff"/>
        <path id="패스_105_-_윤곽선" data-name="패스 105 - 윤곽선" d="M-.5-.5h17v17H-.5Zm16,1H.5v15h15Z" fill="#00d4ff"/>
        <rect id="사각형_92" data-name="사각형 92" width="3.114" height="3.114" transform="translate(0.454 0.228)" fill="#4a4a4a"/>
        <rect id="사각형_92-2" data-name="사각형 92" width="3.114" height="3.114" transform="translate(6.682 0.228)" fill="#4a4a4a"/>
        <rect id="사각형_92-3" data-name="사각형 92" width="3.114" height="3.114" transform="translate(12.909 0.228)" fill="#4a4a4a"/>
        <rect id="사각형_92-4" data-name="사각형 92" width="3.114" height="3.114" transform="translate(3.568 3.342)" fill="#4a4a4a"/>
        <rect id="사각형_92-5" data-name="사각형 92" width="3.114" height="3.114" transform="translate(9.795 3.342)" fill="#4a4a4a"/>
        <rect id="사각형_92-6" data-name="사각형 92" width="3.114" height="3.114" transform="translate(0.454 6.456)" fill="#4a4a4a"/>
        <rect id="사각형_92-7" data-name="사각형 92" width="3.114" height="3.114" transform="translate(6.682 6.456)" fill="#4a4a4a"/>
        <rect id="사각형_92-8" data-name="사각형 92" width="3.114" height="3.114" transform="translate(12.909 6.456)" fill="#4a4a4a"/>
        <rect id="사각형_92-9" data-name="사각형 92" width="3.114" height="3.114" transform="translate(3.568 9.569)" fill="#4a4a4a"/>
        <rect id="사각형_92-10" data-name="사각형 92" width="3.114" height="3.114" transform="translate(9.795 9.569)" fill="#4a4a4a"/>
        <rect id="사각형_92-11" data-name="사각형 92" width="3.114" height="3.114" transform="translate(0.454 12.683)" fill="#4a4a4a"/>
        <rect id="사각형_92-12" data-name="사각형 92" width="3.114" height="3.114" transform="translate(6.682 12.683)" fill="#4a4a4a"/>
        <rect id="사각형_92-13" data-name="사각형 92" width="3.114" height="3.114" transform="translate(12.909 12.683)" fill="#4a4a4a"/>
      </g>
    </g>
  </g>
</svg>
