<svg xmlns="http://www.w3.org/2000/svg" width="17.543" height="17.541" viewBox="0 0 17.543 17.541">
  <g id="a-16" transform="translate(0.069 0.5)">
    <path id="패스_106" data-name="패스 106" d="M8.272,0A8.271,8.271,0,1,1,0,8.271,8.271,8.271,0,0,1,8.272,0Z" transform="translate(0.431 0)" fill="#fff"/>
    <path id="패스_106_-_윤곽선" data-name="패스 106 - 윤곽선" d="M8.272-.5A8.771,8.771,0,1,1-.5,8.271,8.781,8.781,0,0,1,8.272-.5Zm0,16.541A7.771,7.771,0,1,0,.5,8.271,7.78,7.78,0,0,0,8.272,16.041Z" transform="translate(0.431 0)" fill="#fff"/>
    <path id="교차_1" data-name="교차 1" d="M6.326,15.813V12.65H3.163V9.487H.084A8.379,8.379,0,0,1,.237,6.325H3.163V9.487H6.326V12.65H9.489v3.163Zm6.326-3.163H9.489V9.487H6.326V6.325H3.163V3.162H1.782A8.357,8.357,0,0,1,3.163,1.782V3.162H6.326V6.325H9.489V9.487h3.163V12.65h2.725a8.346,8.346,0,0,1-2.725,2.725Zm-11.423,0H3.163v2.172A8.346,8.346,0,0,1,1.229,12.65ZM12.652,9.487V6.325H9.489V3.162H6.326V.237A8.384,8.384,0,0,1,9.489.084V3.162h3.163V6.325h3.164V9.487Zm0-6.325V1.229a8.349,8.349,0,0,1,2.172,1.934Z" transform="translate(0.431)" fill="#4a4a4a"/>
  </g>
</svg>
