<svg xmlns="http://www.w3.org/2000/svg" width="20" height="18" viewBox="0 0 20 18">
  <g id="ic03-hover" transform="translate(-444 -146)">
    <rect id="사각형_21" data-name="사각형 21" width="20" height="13" rx="2" transform="translate(444 146)" fill="#fff"/>
    <path id="패스_36" data-name="패스 36" d="M452.5,156.6V164l7.9-7.4Z" transform="translate(2.6)" fill="#fff"/>
    <path id="사각형_22" data-name="사각형 22" d="M0,0H7V1H0Z" transform="translate(447 149)" fill="#3d3d3d"/>
    <path id="사각형_23" data-name="사각형 23" d="M0,0H4V1H0Z" transform="translate(457 149)" fill="#3d3d3d"/>
    <path id="사각형_24" data-name="사각형 24" d="M0,0H4V1H0Z" transform="translate(447 152)" fill="#3d3d3d"/>
    <path id="사각형_27" data-name="사각형 27" d="M0,0H4V1H0Z" transform="translate(447 155)" fill="#3d3d3d"/>
    <path id="사각형_25" data-name="사각형 25" d="M0,0H4V1H0Z" transform="translate(452 152)" fill="#3d3d3d"/>
    <path id="사각형_26" data-name="사각형 26" d="M0,0H4V1H0Z" transform="translate(458 152)" fill="#3d3d3d"/>
    <path id="사각형_29" data-name="사각형 29" d="M0,0H4V1H0Z" transform="translate(458 155)" fill="#3d3d3d"/>
  </g>
</svg>
