<svg id="ic08" xmlns="http://www.w3.org/2000/svg" width="20.772" height="20.818" viewBox="0 0 20.772 20.818">
  <path id="패스_43" data-name="패스 43" d="M869.464,496.412a8.137,8.137,0,0,0-5.777-2.375,8.013,8.013,0,0,0-5.775,2.422,7.794,7.794,0,0,0-2.374,5.775,8.134,8.134,0,0,0,2.374,5.776,8.336,8.336,0,0,0,5.775,2.376,8.188,8.188,0,0,0,8.151-8.2,8.334,8.334,0,0,0-2.374-5.775ZM863.64,491.8a10.409,10.409,0,0,1,.048,20.818A10.336,10.336,0,0,1,853.3,502.233,10.416,10.416,0,0,1,863.64,491.8Z" transform="translate(-853.301 -491.801)" fill="#8e8e8e" fill-rule="evenodd"/>
  <rect id="사각형_41" data-name="사각형 41" width="9.07" height="1.512" transform="translate(5.819 9.976)" fill="#f9f9f9"/>
  <rect id="사각형_42" data-name="사각형 42" width="1.512" height="9.07" transform="translate(9.599 6.197)" fill="#f9f9f9"/>
</svg>
