<svg id="ic09" xmlns="http://www.w3.org/2000/svg" width="20.772" height="20.818" viewBox="0 0 20.772 20.818">
  <path id="패스_44" data-name="패스 44" d="M911.464,496.412a8.137,8.137,0,0,0-5.777-2.375,8.013,8.013,0,0,0-5.775,2.422,7.794,7.794,0,0,0-2.374,5.775,8.134,8.134,0,0,0,2.374,5.776,8.337,8.337,0,0,0,5.775,2.376,8.188,8.188,0,0,0,8.151-8.2,8.334,8.334,0,0,0-2.374-5.775ZM905.64,491.8a10.409,10.409,0,0,1,.048,20.818A10.336,10.336,0,0,1,895.3,502.233,10.416,10.416,0,0,1,905.64,491.8Z" transform="translate(-895.301 -491.801)" fill="#8e8e8e" fill-rule="evenodd"/>
  <rect id="사각형_43" data-name="사각형 43" width="9.07" height="1.512" transform="translate(5.819 9.976)" fill="#f9f9f9"/>
</svg>
