<svg xmlns="http://www.w3.org/2000/svg" width="25.373" height="20.413" viewBox="0 0 25.373 20.413">
  <g id="ic14-active" transform="translate(0.5 0.5)">
    <path id="패스_18" data-name="패스 18" d="M922.022,696.913H915.5V677.5h10.92v14.712Z" transform="translate(-902.153 -677.5)" fill="#fff" fill-rule="evenodd"/>
    <path id="패스_18_-_윤곽선" data-name="패스 18 - 윤곽선" d="M922.239,697.413H915V677h11.92v15.409Zm-6.239-1h5.8l4.115-4.4V678H916Z" transform="translate(-902.153 -677.5)" fill="#00d4ff"/>
    <path id="패스_19" data-name="패스 19" d="M925.96,688.5H920.5v5.46" transform="translate(-901.087 -675.153)" fill="rgba(255,255,255,0.2)" fill-rule="evenodd"/>
    <path id="패스_19_-_윤곽선" data-name="패스 19 - 윤곽선" d="M921,693.96h-1V688h5.96v1H921Z" transform="translate(-901.087 -675.153)" fill="#00d4ff"/>
    <path id="패스_20" data-name="패스 20" d="M911.022,696.913H904.5V677.5h10.92v14.712Z" transform="translate(-904.5 -677.5)" fill="#fff" fill-rule="evenodd"/>
    <path id="패스_20_-_윤곽선" data-name="패스 20 - 윤곽선" d="M911.239,697.413H904V677h11.92v15.409Zm-6.239-1h5.8l4.115-4.4V678H905Z" transform="translate(-904.5 -677.5)" fill="#00d4ff"/>
    <path id="패스_21" data-name="패스 21" d="M914.96,688.5H909.5v5.46" transform="translate(-903.433 -675.153)" fill="rgba(255,255,255,0.2)" fill-rule="evenodd"/>
    <path id="패스_21_-_윤곽선" data-name="패스 21 - 윤곽선" d="M910,693.96h-1V688h5.96v1H910Z" transform="translate(-903.433 -675.153)" fill="#00d4ff"/>
  </g>
</svg>
