<svg xmlns="http://www.w3.org/2000/svg" width="21.798" height="21.544" viewBox="0 0 21.798 21.544">
  <g id="ic16-hover" transform="translate(-345.386 -979.742)">
    <path id="패스_29" data-name="패스 29" d="M364.286,998.741H350.2a.326.326,0,0,1-.325-.326V984.5a.326.326,0,0,1,.325-.325h14.089a.326.326,0,0,1,.325.325v13.911A.326.326,0,0,1,364.286,998.741Zm-13.762-.652h13.436V984.83H350.524Z" transform="translate(-0.957 -0.946)" fill="#fff"/>
    <path id="패스_29_-_윤곽선" data-name="패스 29 - 윤곽선" d="M364.286,999.241H350.2a.827.827,0,0,1-.825-.826V984.5a.826.826,0,0,1,.825-.825h14.089a.826.826,0,0,1,.825.825v13.911A.827.827,0,0,1,364.286,999.241Zm-13.262-1.652h12.436V985.33H351.024Z" transform="translate(-0.957 -0.946)" fill="#fff"/>
    <path id="패스_30" data-name="패스 30" d="M366.4,985.626a.284.284,0,0,1-.284-.283v-4.534h-5.209a.284.284,0,0,1,0-.567H366.4a.284.284,0,0,1,.284.283v4.818A.284.284,0,0,1,366.4,985.626Z" fill="#fff"/>
    <path id="패스_30_-_윤곽선" data-name="패스 30 - 윤곽선" d="M366.4,986.126a.784.784,0,0,1-.784-.783v-4.034h-4.709a.784.784,0,0,1,0-1.567H366.4a.784.784,0,0,1,.784.783v4.818A.784.784,0,0,1,366.4,986.126Z" fill="#fff"/>
    <path id="패스_31" data-name="패스 31" d="M366.4,1000.786h-5.493a.284.284,0,0,1,0-.567h5.209V995.4a.284.284,0,0,1,.568,0v5.1A.284.284,0,0,1,366.4,1000.786Z" fill="#fff"/>
    <path id="패스_31_-_윤곽선" data-name="패스 31 - 윤곽선" d="M366.4,1001.286h-5.493a.784.784,0,0,1,0-1.567h4.709V995.4a.784.784,0,0,1,1.568,0v5.1A.784.784,0,0,1,366.4,1001.286Z" fill="#fff"/>
    <path id="패스_32" data-name="패스 32" d="M351.14,1000.786h-4.97a.284.284,0,0,1-.284-.283v-5.1a.284.284,0,0,1,.567,0v4.816h4.687a.284.284,0,1,1,0,.567Z" fill="#fff"/>
    <path id="패스_32_-_윤곽선" data-name="패스 32 - 윤곽선" d="M351.14,1001.286h-4.97a.784.784,0,0,1-.784-.783v-5.1a.784.784,0,0,1,1.567,0v4.316h4.187a.784.784,0,1,1,0,1.567Z" fill="#fff"/>
    <path id="패스_33" data-name="패스 33" d="M346.17,985.626a.284.284,0,0,1-.284-.283v-4.818a.284.284,0,0,1,.284-.283h4.97a.284.284,0,1,1,0,.567h-4.687v4.534A.283.283,0,0,1,346.17,985.626Z" fill="#fff"/>
    <path id="패스_33_-_윤곽선" data-name="패스 33 - 윤곽선" d="M346.17,986.126a.784.784,0,0,1-.784-.783v-4.818a.784.784,0,0,1,.784-.783h4.97a.784.784,0,1,1,0,1.567h-4.187v4.034A.784.784,0,0,1,346.17,986.126Z" fill="#fff"/>
  </g>
</svg>
