<svg xmlns="http://www.w3.org/2000/svg" width="21.798" height="21.544" viewBox="0 0 21.798 21.544">
  <g id="ic16" transform="translate(-345.386 -979.742)">
    <path id="패스_29" data-name="패스 29" d="M364.286,999.241H350.2a.827.827,0,0,1-.825-.826V984.5a.826.826,0,0,1,.825-.825h14.089a.826.826,0,0,1,.825.825v13.911A.827.827,0,0,1,364.286,999.241Zm-13.262-1.652h12.436V985.33H351.024Z" transform="translate(-0.957 -0.946)" fill="#fff"/>
    <path id="패스_30" data-name="패스 30" d="M366.4,986.126a.784.784,0,0,1-.784-.783v-4.034h-4.709a.784.784,0,0,1,0-1.567H366.4a.784.784,0,0,1,.784.783v4.818A.784.784,0,0,1,366.4,986.126Z" fill="#8e8e8e"/>
    <path id="패스_31" data-name="패스 31" d="M366.4,1001.286h-5.493a.784.784,0,0,1,0-1.567h4.709V995.4a.784.784,0,0,1,1.568,0v5.1A.784.784,0,0,1,366.4,1001.286Z" fill="#8e8e8e"/>
    <path id="패스_32" data-name="패스 32" d="M351.14,1001.286h-4.97a.784.784,0,0,1-.784-.783v-5.1a.784.784,0,0,1,1.567,0v4.316h4.187a.784.784,0,1,1,0,1.567Z" fill="#8e8e8e"/>
    <path id="패스_33" data-name="패스 33" d="M346.17,986.126a.784.784,0,0,1-.784-.783v-4.818a.784.784,0,0,1,.784-.783h4.97a.784.784,0,1,1,0,1.567h-4.187v4.034A.784.784,0,0,1,346.17,986.126Z" fill="#8e8e8e"/>
  </g>
</svg>
