<svg xmlns="http://www.w3.org/2000/svg" width="20" height="18" viewBox="0 0 20 18">
  <g id="ic20-active" transform="translate(-444 -146)">
    <path id="합치기_1" data-name="합치기 1" d="M-970.9,17H-980a2,2,0,0,1-2-2V6a2,2,0,0,1,2-2h16a2,2,0,0,1,2,2v9a2,2,0,0,1-2,2h-1.563l-5.338,5Z" transform="translate(1426 142)" fill="#fff"/>
    <path id="합치기_1_-_윤곽선" data-name="합치기 1 - 윤곽선" d="M-969.4,18.539l3.245-3.039H-964a.5.5,0,0,0,.5-.5V6a.5.5,0,0,0-.5-.5h-16a.5.5,0,0,0-.5.5v9a.5.5,0,0,0,.5.5h10.6v3.039M-970.9,22V17H-980a2,2,0,0,1-2-2V6a2,2,0,0,1,2-2h16a2,2,0,0,1,2,2v9a2,2,0,0,1-2,2h-1.563Z" transform="translate(1426 142)" fill="#00d4ff"/>
  </g>
</svg>
