<svg xmlns="http://www.w3.org/2000/svg" width="21.798" height="21.544" viewBox="0 0 21.798 21.544">
  <g id="ic31" transform="translate(-1368.261 -596.25)">
    <path id="패스_29" data-name="패스 29" d="M360.8,995.222H350.119a.247.247,0,0,1-.247-.248v-10.55a.247.247,0,0,1,.247-.247H360.8a.247.247,0,0,1,.247.247v10.55A.247.247,0,0,1,360.8,995.222Zm-10.437-.494h10.189V984.672H350.366Z" transform="translate(1023.699 -382.678)" fill="rgba(255,255,255,0.77)"/>
    <path id="패스_29_-_윤곽선" data-name="패스 29 - 윤곽선" d="M360.8,995.722H350.119a.748.748,0,0,1-.747-.748v-10.55a.747.747,0,0,1,.747-.747H360.8a.747.747,0,0,1,.747.747v10.55A.748.748,0,0,1,360.8,995.722Zm-9.937-1.494h9.189v-9.056h-9.189Z" transform="translate(1023.699 -382.678)" fill="#8e8e8e"/>
    <path id="패스_30" data-name="패스 30" d="M366.4,986.126a.784.784,0,0,1-.784-.783v-4.034h-4.709a.784.784,0,0,1,0-1.567H366.4a.784.784,0,0,1,.784.783v4.818A.784.784,0,0,1,366.4,986.126Z" transform="translate(1022.875 -383.492)" fill="#fff"/>
    <path id="패스_31" data-name="패스 31" d="M366.4,1001.286h-5.493a.784.784,0,0,1,0-1.567h4.709V995.4a.784.784,0,0,1,1.568,0v5.1A.784.784,0,0,1,366.4,1001.286Z" transform="translate(1022.875 -383.492)" fill="#fff"/>
    <path id="패스_32" data-name="패스 32" d="M351.14,1001.286h-4.97a.784.784,0,0,1-.784-.783v-5.1a.784.784,0,0,1,1.567,0v4.316h4.187a.784.784,0,1,1,0,1.567Z" transform="translate(1022.875 -383.492)" fill="#fff"/>
    <path id="패스_33" data-name="패스 33" d="M346.17,986.126a.784.784,0,0,1-.784-.783v-4.818a.784.784,0,0,1,.784-.783h4.97a.784.784,0,1,1,0,1.567h-4.187v4.034A.784.784,0,0,1,346.17,986.126Z" transform="translate(1022.875 -383.492)" fill="#fff"/>
    <path id="선_90" data-name="선 90" d="M3,4.75a.749.749,0,0,1-.6-.3l-3-4A.75.75,0,0,1-.45-.6.75.75,0,0,1,.6-.45l3,4A.75.75,0,0,1,3,4.75Z" transform="translate(1370 597.5)" fill="#fff"/>
    <path id="선_93" data-name="선 93" d="M4,4.75a.748.748,0,0,1-.53-.22l-4-4A.75.75,0,0,1-.53-.53.75.75,0,0,1,.53-.53l4,4A.75.75,0,0,1,4,4.75Z" transform="translate(1385 612.5)" fill="#fff"/>
    <path id="선_91" data-name="선 91" d="M0,4.75a.748.748,0,0,1-.53-.22.75.75,0,0,1,0-1.061l4-4a.75.75,0,0,1,1.061,0A.75.75,0,0,1,4.53.53l-4,4A.748.748,0,0,1,0,4.75Z" transform="translate(1385 597.5)" fill="#fff"/>
    <path id="선_92" data-name="선 92" d="M0,4.75a.748.748,0,0,1-.53-.22.75.75,0,0,1,0-1.061l4-4a.75.75,0,0,1,1.061,0A.75.75,0,0,1,4.53.53l-4,4A.748.748,0,0,1,0,4.75Z" transform="translate(1370 612.5)" fill="#fff"/>
  </g>
</svg>
