<svg xmlns="http://www.w3.org/2000/svg" width="21.798" height="21.544" viewBox="0 0 21.798 21.544">
  <g id="ic31-active" transform="translate(-1419.651 -308.25)">
    <g id="그룹_170" data-name="그룹 170" transform="translate(1074.265 -671.492)">
      <path id="패스_29" data-name="패스 29" d="M369.463,1004.472H350.314a.944.944,0,0,1-.942-.944V984.62a.943.943,0,0,1,.942-.942h19.149a.943.943,0,0,1,.942.942v18.909A.944.944,0,0,1,369.463,1004.472Zm-18.206-1.886H368.52V985.564H351.258Z" transform="translate(-3.604 -3.561)" fill="#fff"/>
      <path id="패스_30" data-name="패스 30" d="M366.4,986.126a.784.784,0,0,1-.784-.783v-4.034h-4.709a.784.784,0,0,1,0-1.567H366.4a.784.784,0,0,1,.784.783v4.818A.784.784,0,0,1,366.4,986.126Z" fill="#00d4ff"/>
      <path id="패스_31" data-name="패스 31" d="M366.4,1001.286h-5.493a.784.784,0,0,1,0-1.567h4.709V995.4a.784.784,0,0,1,1.568,0v5.1A.784.784,0,0,1,366.4,1001.286Z" fill="#00d4ff"/>
      <path id="패스_32" data-name="패스 32" d="M351.14,1001.286h-4.97a.784.784,0,0,1-.784-.783v-5.1a.784.784,0,0,1,1.567,0v4.316h4.187a.784.784,0,1,1,0,1.567Z" fill="#00d4ff"/>
      <path id="패스_33" data-name="패스 33" d="M346.17,986.126a.784.784,0,0,1-.784-.783v-4.818a.784.784,0,0,1,.784-.783h4.97a.784.784,0,1,1,0,1.567h-4.187v4.034A.784.784,0,0,1,346.17,986.126Z" fill="#00d4ff"/>
    </g>
    <path id="선_98" data-name="선 98" d="M3,4.75a.749.749,0,0,1-.6-.3l-3-4A.75.75,0,0,1-.45-.6.75.75,0,0,1,.6-.45l3,4A.75.75,0,0,1,3,4.75Z" transform="translate(1421.39 309.5)" fill="#00d4ff"/>
    <path id="선_100" data-name="선 100" d="M4,4.75a.748.748,0,0,1-.53-.22l-4-4A.75.75,0,0,1-.53-.53.75.75,0,0,1,.53-.53l4,4A.75.75,0,0,1,4,4.75Z" transform="translate(1436.39 324.5)" fill="#00d4ff"/>
    <path id="선_99" data-name="선 99" d="M0,4.75a.748.748,0,0,1-.53-.22.75.75,0,0,1,0-1.061l4-4a.75.75,0,0,1,1.061,0A.75.75,0,0,1,4.53.53l-4,4A.748.748,0,0,1,0,4.75Z" transform="translate(1436.39 309.5)" fill="#00d4ff"/>
    <path id="선_101" data-name="선 101" d="M0,4.75a.748.748,0,0,1-.53-.22.75.75,0,0,1,0-1.061l4-4a.75.75,0,0,1,1.061,0A.75.75,0,0,1,4.53.53l-4,4A.748.748,0,0,1,0,4.75Z" transform="translate(1421.39 324.5)" fill="#00d4ff"/>
  </g>
</svg>
