<svg xmlns="http://www.w3.org/2000/svg" width="19.798" height="19.583" viewBox="0 0 19.798 19.583">
  <g id="ic32-hover" transform="translate(-1413.618 -523.624)">
    <path id="패스_110" data-name="패스 110" d="M360.562,995.479H350.113a.742.742,0,0,1-.741-.742V984.419a.742.742,0,0,1,.741-.741h10.449a.742.742,0,0,1,.741.741v10.318A.742.742,0,0,1,360.562,995.479ZM350.855,994h8.965v-8.834h-8.965Z" transform="translate(1068.179 -456.183)" fill="#8e8e8e"/>
    <g id="그룹_242" data-name="그룹 242" transform="translate(2741.917 539.258) rotate(180)">
      <path id="패스_33" data-name="패스 33" d="M346.17,986.126a.784.784,0,0,1-.784-.783v-4.818a.784.784,0,0,1,.784-.783h4.97a.784.784,0,1,1,0,1.567h-4.187v4.034A.784.784,0,0,1,346.17,986.126Z" transform="translate(976.375 -970.492)" fill="#fff"/>
      <path id="선_95" data-name="선 95" d="M3,4.75a.749.749,0,0,1-.6-.3l-3-4A.75.75,0,0,1-.45-.6.75.75,0,0,1,.6-.45l3,4A.75.75,0,0,1,3,4.75Z" transform="translate(1323.5 10.5)" fill="#fff"/>
    </g>
    <g id="그룹_243" data-name="그룹 243" transform="translate(2769.915 567.335) rotate(180)">
      <path id="패스_31" data-name="패스 31" d="M366.4,1001.286h-5.493a.784.784,0,0,1,0-1.567h4.709V995.4a.784.784,0,0,1,1.568,0v5.1A.784.784,0,0,1,366.4,1001.286Z" transform="translate(976.375 -970.492)" fill="#fff"/>
      <path id="선_96" data-name="선 96" d="M4,4.75a.748.748,0,0,1-.53-.22l-4-4A.75.75,0,0,1-.53-.53.75.75,0,0,1,.53-.53l4,4A.75.75,0,0,1,4,4.75Z" transform="translate(1338.5 25.5)" fill="#fff"/>
    </g>
    <g id="그룹_244" data-name="그룹 244" transform="translate(2769.915 539.258) rotate(180)">
      <path id="패스_30" data-name="패스 30" d="M366.4,986.126a.784.784,0,0,1-.784-.783v-4.034h-4.709a.784.784,0,0,1,0-1.567H366.4a.784.784,0,0,1,.784.783v4.818A.784.784,0,0,1,366.4,986.126Z" transform="translate(976.375 -970.492)" fill="#fff"/>
      <path id="선_94" data-name="선 94" d="M0,4.75a.748.748,0,0,1-.53-.22.75.75,0,0,1,0-1.061l4-4a.75.75,0,0,1,1.061,0A.75.75,0,0,1,4.53.53l-4,4A.748.748,0,0,1,0,4.75Z" transform="translate(1338.5 10.5)" fill="#fff"/>
    </g>
    <g id="그룹_245" data-name="그룹 245" transform="translate(2741.917 567.335) rotate(180)">
      <path id="패스_32" data-name="패스 32" d="M351.14,1001.286h-4.97a.784.784,0,0,1-.784-.783v-5.1a.784.784,0,0,1,1.567,0v4.316h4.187a.784.784,0,1,1,0,1.567Z" transform="translate(976.375 -970.492)" fill="#fff"/>
      <path id="선_97" data-name="선 97" d="M0,4.75a.748.748,0,0,1-.53-.22.75.75,0,0,1,0-1.061l4-4a.75.75,0,0,1,1.061,0A.75.75,0,0,1,4.53.53l-4,4A.748.748,0,0,1,0,4.75Z" transform="translate(1323.5 25.5)" fill="#fff"/>
    </g>
  </g>
</svg>
