<svg xmlns="http://www.w3.org/2000/svg" width="20" height="14" viewBox="0 0 20 14">
  <g id="sel6-left" transform="translate(-1621.5 -223.5)">
    <path id="선_117" data-name="선 117" d="M18,1H0A1,1,0,0,1-1,0,1,1,0,0,1,0-1H18a1,1,0,0,1,1,1A1,1,0,0,1,18,1Z" transform="translate(1622.5 224.5)" fill="#fff"/>
    <path id="선_119" data-name="선 119" d="M18,1H0A1,1,0,0,1-1,0,1,1,0,0,1,0-1H18a1,1,0,0,1,1,1A1,1,0,0,1,18,1Z" transform="translate(1622.5 236.5)" fill="#fff"/>
    <path id="선_118" data-name="선 118" d="M11,1H0A1,1,0,0,1-1,0,1,1,0,0,1,0-1H11a1,1,0,0,1,1,1A1,1,0,0,1,11,1Z" transform="translate(1622.5 230.5)" fill="#fff"/>
  </g>
</svg>
