<svg xmlns="http://www.w3.org/2000/svg" width="20" height="14" viewBox="0 0 20 14">
  <g id="sel6-right" transform="translate(-1717.5 -224.5)">
    <path id="선_125" data-name="선 125" d="M18,1H0A1,1,0,0,1-1,0,1,1,0,0,1,0-1H18a1,1,0,0,1,1,1A1,1,0,0,1,18,1Z" transform="translate(1718.5 225.5)" fill="#fff"/>
    <path id="선_123" data-name="선 123" d="M18,1H0A1,1,0,0,1-1,0,1,1,0,0,1,0-1H18a1,1,0,0,1,1,1A1,1,0,0,1,18,1Z" transform="translate(1718.5 237.5)" fill="#fff"/>
    <path id="선_124" data-name="선 124" d="M11,1H0A1,1,0,0,1-1,0,1,1,0,0,1,0-1H11a1,1,0,0,1,1,1A1,1,0,0,1,11,1Z" transform="translate(1725.5 231.5)" fill="#fff"/>
  </g>
</svg>
