<svg xmlns="http://www.w3.org/2000/svg" width="23.5" height="13" viewBox="0 0 23.5 13">
  <g id="sel8-img" transform="translate(-1583.5 -232)">
    <circle id="타원_12" data-name="타원 12" cx="6.5" cy="6.5" r="6.5" transform="translate(1594 232)" fill="rgba(255,255,255,0.54)"/>
    <path id="타원_12_-_윤곽선" data-name="타원 12 - 윤곽선" d="M6.5,0H7.563l.015,0h.069l.015,0h0l.015,0,.015,0h0l.015,0,.015,0h0A6.454,6.454,0,0,1,8.469.3l-.3.953A5.5,5.5,0,0,0,6.5,1V0Zm3.752,1.192.137.1h0L10.4,1.3h0l.011.009h0l.007.005h0l.011.008h0l.011.008h0l.007.005h0l.011.008h0l.011.008h0l.006,0,0,0h0l.006.005h0l.006,0,0,0h0l0,0,.005,0,0,0,0,0,0,0,0,0,.005,0h0l.005,0,.005,0h0l.005,0,0,0,0,0,.006,0,0,0,0,0,.005,0,0,0,.005,0,0,0,.006,0,0,0,0,0,.005,0,0,0,.005,0,.007.005.005,0,0,0,.005,0,0,0,0,0,0,0,.005,0,0,0,0,0,.005,0,0,0,0,0,0,0,0,0,.006,0,0,0,0,0,.005,0h0l0,0,0,0,0,0,.005,0,0,0,0,0,0,0h0l.005,0h0l.005,0,0,0h0l0,0,0,0,.01.008h0l.006,0,0,0h0l.005,0h0l.01.009h0l.006.006h0l0,0h0l.006.005h0l.01.009h0l.007.006h0l0,0h0l.007.006h0l.01.009h0l.017.016h0l.01.01h0l.018.016h0a6.535,6.535,0,0,1,.641.68h0l.015.019h0l.009.011h0l0,.006h0l0,0h0l0,.006h0l.008.01v0l0,.005,0,0,0,0,0,0,0,.005,0,0,0,0,0,0,0,0,0,0,0,0,0,0,0,0,0,0v0l0,0v0l0,0h0l0,0v0l0,.005h0l0,.005h0l0,.006h0l.009.012h0l0,.006h0l.009.012h0l-.8.6A5.528,5.528,0,0,0,9.674,2.008l.578-.816Zm2.377,3.139v.023l0,0v.009l0,.005v.009l0,.005V4.4l0,0v.046l0,.005v.009l0,.005v.009l0,.005v.009l0,.005V4.5l0,0v.024l0,0v.035l0,.005v.014l0,.006,0,.005v.009l0,.006v.008l0,.006v.009l0,.006v.006h0l0,.007v0l0,.013v0l0,.009h0v.006l0,.007v.006h0l0,.007v.007l0,.007v.006h0l0,.009h0l0,.013h0l0,.013h0l0,.014h0l0,.014h0l0,.014h0l0,.009h0l0,.014h0l0,.014h0l0,.014h0l0,.014h0l.017.068h0A6.5,6.5,0,0,1,13,6.289l-1,.032a5.481,5.481,0,0,0-.311-1.656ZM11.795,8l.963.271q-.026.091-.054.182h0l0,.015h0l0,.014h0l0,.007h0l0,.007h0l0,.007h0l0,.006h0l0,.007h0l0,.007h0l0,.006v0l0,.006v0l0,.006h0l0,.006v0l0,.006h0l0,.006v0l0,.006v0l0,.005v0l0,.006v0l0,0v0l0,.006v0l0,.005v0l0,0v0l0,.006v.009l0,.005v.017l0,0v.01l0,.005v.006l0,.005V8.7l0,.006v.009l0,.006v0l0,.007h0v.006l0,.007h0l0,0h0l0,.007h0l0,.013v0l0,.008h0l0,0h0l0,.008h0l0,.013h0l-.005.013h0l-.009.022h0l-.005.014h0A6.476,6.476,0,0,1,11.976,10h0l-.048.074-.834-.551A5.464,5.464,0,0,0,11.795,8ZM9.959,10.776l.63.777a6.521,6.521,0,0,1-.579.419h0L10,11.98h0l-.006,0h0l-.006,0h0l-.006,0h0L9.964,12h0l-.006,0h0l-.006,0h0l-.006,0h0l-.012.008h0l-.006,0h0l-.005,0h0l-.006,0h0l-.005,0h0l-.006,0h0l-.006,0-.006,0h0l-.005,0-.007,0h0l-.006,0h0l-.005,0-.006,0h0l-.005,0-.006,0h0l-.005,0-.006,0-.007,0-.007,0-.006,0-.007,0-.006,0-.007,0-.007,0-.006,0-.007,0-.006,0-.008,0-.006,0-.007,0-.008,0-.006,0-.007,0-.005,0-.006,0-.005,0-.008,0h0l-.006,0-.006,0h0l-.006,0-.005,0h0l-.007,0h0l-.007,0-.005,0h0l-.006,0-.005,0h0l-.006,0h0l-.006,0-.005,0h0l-.006,0-.005,0-.008,0h0l-.007,0,0,0h0l-.006,0-.005,0h0l-.006,0h0l-.012.006h0l-.007,0,0,0h0l-.007,0h0l-.012.006h0l-.008,0,0,0h0l-.007,0h0l-.012.006h0l-.007,0,0,0-.008,0-.006,0h0l-.007,0h0l-.012.006h0l-.006,0-.005,0h0l-.007,0h0l-.012.006h0l-.006,0-.005,0-.008,0h0l-.012.006-.008,0-.006,0-.008,0-.006,0-.008,0-.008,0-.006,0-.008,0-.006,0-.008,0-.007,0-.007,0-.007,0-.006,0-.008,0-.006,0-.008,0-.007,0-.007,0-.008,0-.006,0-.008,0-.006,0-.008,0-.007,0-.007,0-.008,0-.006,0-.008,0-.007,0-.007,0-.008,0-.006,0-.008,0-.006,0-.008,0-.007,0-.007,0-.008,0-.007,0-.008,0-.007,0h0l-.007,0-.007,0-.014.006h0l-.014.006h0l-.022.009h0l-.124.05L8.5,11.624A5.487,5.487,0,0,0,9.959,10.776ZM5.177,11.84A5.527,5.527,0,0,0,6.5,12c.119,0,.24,0,.359-.011l.064,1q-.116.007-.234.011H6.01q-.273-.02-.54-.063H5.465l-.025,0H5.429l-.019,0H5.4l-.014,0h-.08l-.012,0H5.275l-.018,0h0q-.161-.031-.319-.07ZM2.339,10.1a5.523,5.523,0,0,0,1.285,1.093l-.524.852q-.276-.169-.532-.365h0l-.011-.009h0l-.007-.005h0l-.011-.008h0l-.011-.008h0l-.006,0h0l-.011-.008h0l-.006,0,0,0h0l-.005,0-.005,0,0,0,0,0,0,0,0,0-.005,0,0,0,0,0-.005,0,0,0-.005,0,0,0,0,0-.006,0,0,0,0,0,0,0,0,0-.005,0h0l0,0,0,0,0,0h0l0,0h0l0,0h0l0,0h0l-.005,0h0l-.005,0h0l-.005,0h0l-.005,0h0l-.005,0h0l-.005,0h0l-.005,0h0l-.005,0h0l-.005,0h0l-.005,0h0l-.006,0h0L2.3,11.464h0l-.006,0h0l-.006,0h0l-.006,0h0l-.012-.01h0a6.54,6.54,0,0,1-.691-.687ZM1.026,7.037a5.459,5.459,0,0,0,.418,1.631l-.919.395Q.5,9,.472,8.935h0l0-.007h0L.463,8.914h0L.457,8.9h0L.452,8.886h0l0-.007h0l0-.006h0l0-.006h0l0-.005h0l0-.006v0l0,0h0l0-.006v0l0,0v0l0,0v0l0-.006v0l0,0v0l0-.005V8.791l0-.005v-.01l0,0V8.765l0,0v-.01l0,0,0-.006v0l0,0v0l0-.012v0l0-.007h0V8.7l0-.007V8.688h0l0-.007V8.674h0l0-.008h0l0-.013h0l0-.013h0l0-.013h0l0-.009h0l0-.014h0l0-.014h0l0-.014h0L.32,8.519h0A6.447,6.447,0,0,1,.132,7.81h0a6.489,6.489,0,0,1-.1-.677ZM.851,3.282l.868.5a5.454,5.454,0,0,0-.6,1.573L.142,5.144a6.451,6.451,0,0,1,.176-.655h0l0-.015h0l.007-.022h0l0-.014h0l0-.007h0l0-.007h0l0-.007h0l0-.006h0l0-.007h0l0-.007h0l0-.007v0l0-.006h0l0-.006v0l0-.006v0l0-.005v0l0-.006v0l0-.006h0l0-.006v0l0-.006v0l0,0v0l0-.006V4.3l0-.005V4.28l0,0v-.01l0-.005V4.254l0,0V4.24l0-.006V4.226l0-.006v0l0-.012v0l0-.008h0l0,0h0l0-.008h0l.005-.013h0l.005-.013h0a6.471,6.471,0,0,1,.414-.871ZM3.744.611l.424.905a5.5,5.5,0,0,0-1.4.941l-.678-.735a6.524,6.524,0,0,1,.856-.667h0l.012-.008h0l.008,0h0l.012-.008h0l.007,0,0,0h0l.006,0,.005,0h0l.006,0h0l.005,0,.005,0h0l.005,0,.005,0,.007,0,.006,0,.007,0,.007,0,.006,0,.007,0,.006,0,.007,0,.006,0,.007,0,.005,0,.006,0h0l.005,0h0l.005,0h0l.006,0h0l.006,0h0l.005,0h0l.006,0h0l.006,0h0l.006,0h0l.006,0h0l.006,0h0l.006,0h0L3.2.9h0L3.216.889h0l.007,0h0L3.237.877h0Q3.484.734,3.744.611ZM6.5,0V1a5.584,5.584,0,0,0-.715.046L5.657.054q.206-.027.415-.04H6.5Z" transform="translate(1594 232)" fill="#fff"/>
    <path id="선_140" data-name="선 140" d="M10.5.5H0A.5.5,0,0,1-.5,0,.5.5,0,0,1,0-.5H10.5A.5.5,0,0,1,11,0,.5.5,0,0,1,10.5.5Z" transform="translate(1584 238.5)" fill="#8a8a8a"/>
  </g>
</svg>
