<svg xmlns="http://www.w3.org/2000/svg" width="77.992" height="78" viewBox="0 0 77.992 78">
  <g id="v-noimg" transform="translate(-391.008 -1011)">
    <path id="타원_20" data-name="타원 20" d="M39,0h2.144l.031,0h.016l.033,0h.014l.047,0,.047,0,.046,0h0c.206.012.411.026.616.042L41.543,6.1Q40.284,6,39,6V0Zm5.977.455.047.007h0L45.07.47h0l.023,0h0l.022,0h0l.022,0h0l.019,0h0l.021,0,.022,0h0l.02,0,.023,0,.022,0,.024,0,.021,0,.022,0,.023,0,.026,0,.02,0,.026,0,.019,0,.022,0,.018,0h0l.027,0,.016,0h0l.03.005h0q.88.149,1.747.338h0L47.363.9h0l.041.009h0l.023.005.016,0,.008,0,.017,0,.019,0,.011,0,.013,0,.02,0,.018,0h.006l.015,0h.006l.02,0h0l.019,0h0l.021,0h0l.271.062L46.555,6.867q-1.228-.287-2.49-.482Zm5.836,1.366c.451.143.9.295,1.343.454h0l.026.009h0l.04.014h0l.038.014.006,0,.017.006.009,0,.01,0,.009,0,.015.005.01,0,.009,0,.014.005.009,0,.012,0,.007,0,.017.006.006,0,.014.005.006,0,.018.007.005,0,.018.006h0L52.5,2.4l0,0,.02.007h0l.019.007h0l.02.007h0l.02.007h0l.021.008h0q.515.192,1.023.4L51.382,8.4Q50.212,7.926,49,7.54l1.816-5.719Zm5.555,2.25q.263.131.523.265h0l.04.021h0l.019.01,0,0,.017.009h0l.018.009.005,0,.017.009,0,0,.014.007.007,0,.015.008.007,0,.011.006.007,0,.015.008.008,0,.01.005.013.007.009,0,.009,0,.011.006.011.006.009,0,.012.006L57.2,4.5l.01.005.007,0,.017.009.006,0,.011.006,0,0,.019.01.006,0,.035.019,0,0,.023.012h0l.012.007h0l.023.012,0,0,.036.02h0l.037.02h0l.023.013,0,0,.037.02h0l.037.02,0,0,.019.011.005,0,.011.006h0l.023.012,0,0,.036.019,0,0,.02.011,0,0,.011.006,0,0,.021.011,0,0,.034.019.007,0,.014.008.009.005.009,0,.009,0,.013.007.009.005.008,0,.014.008.009,0,.009.005.008,0,.015.008.007,0,.013.007.007,0,.013.007.006,0,.017.009,0,0,.014.008,0,0,.018.01,0,0,.017.01h0l.018.01,0,0,.019.01h0l.019.01h0l.019.011h0l.04.023h0q.428.242.85.494L55.919,10.66q-1.086-.65-2.225-1.218ZM61.513,7.15l.254.182h0l.021.015,0,0,.01.007h0l.02.014.007.005.009.007.013.009.006,0,.015.011,0,0,.015.011,0,0,.017.013h0q1.015.738,1.979,1.538L60.06,13.593q-.977-.811-2.015-1.546l3.467-4.9Zm4.613,3.828Q67.2,12.021,68.2,13.145l-4.491,3.979q-.843-.951-1.756-1.836ZM70.1,15.464q.883,1.166,1.68,2.4v0l.012.019h0l.011.017v0l.011.017v0l-5.045,3.247q-.688-1.069-1.455-2.081Zm3.244,5.041q.514.952.975,1.934h0l.05.106v0l.018.039h0q.141.3.277.61l-5.484,2.434q-.516-1.163-1.117-2.277l5.28-2.849Zm2.431,5.479,0,.01,0,.005,0,.012v0l.008.022,0,.006.013.038v0l.014.04v0l.009.026h0l.014.041h0l.014.041h0q.445,1.286.8,2.61l-5.794,1.558q-.331-1.23-.752-2.42Zm1.556,5.788q.235,1.253.389,2.535h0l.005.045v0l0,.042V34.4l0,.021v.039l0,.015v.009l0,.014v.006l0,.019v.006l0,.02h0l0,.022v0l.005.045h0l.013.117-5.965.648q-.138-1.27-.371-2.51l5.9-1.105Zm.648,5.959c.006.176.01.35.013.527v.522s0,0,0,0v.077s0,0,0,0,0,.009,0,.014v.006s0,.008,0,.012,0,0,0,.006,0,.01,0,.015,0,0,0,0,0,.012,0,.018,0,0,0,0,0,.009,0,.014,0,0,0,.006,0,.009,0,.013v.005q0,.009,0,.018h0v.015s0,0,0,.005v.01s0,0,0,.006,0,.007,0,.009,0,0,0,.006,0,.007,0,.01,0,0,0,.005v.011s0,0,0,0,0,.02,0,.031h0c0,.005,0,.009,0,.014s0,0,0,0,0,.007,0,.011,0,0,0,0v.011s0,0,0,0,0,.008,0,.013,0,0,0,0c0,.016,0,.031,0,.047h0v.046h0q0,.52-.02,1.036v.054q-.006.187-.015.374l-5.994-.262L72,39l-.017-1.077,6-.192ZM71.76,43l5.957.719v.006l0,.013v.032l0,.015V43.8l0,.015v.008l0,.017v.006l0,.02v0l0,.019v0l0,.021v0l0,.021v0q-.176,1.391-.448,2.75L71.36,45.507Q71.607,44.271,71.76,43Zm-.993,4.97L76.543,49.6q-.409,1.451-.925,2.853l-5.632-2.07Q70.421,49.2,70.767,47.972ZM69.02,52.726l5.455,2.5c-.047.1-.095.205-.143.308v0L74.3,55.6h0l-.018.038,0,0-.017.037,0,0-.01.02,0,0-.006.012,0,0-.01.021,0,.005-.005.011h0l-.011.023,0,.007-.007.014,0,.009,0,.01,0,.008-.007.014,0,.01,0,.009-.007.015,0,.008,0,.01,0,.008-.007.015,0,.008-.006.012,0,.009-.006.013,0,.007-.007.015,0,.008-.006.012,0,.006-.008.017,0,.006-.007.014,0,.005-.008.017,0,.007-.008.017,0,0-.007.015,0,0-.009.018,0,0-.008.016,0,0-.009.018,0,0-.009.018h0L74,56.219l0,0-.009.019v0l-.009.017v0l-.009.019v0l-.02.039v0l-.02.04h0l-.01.02h0l-.021.041h0q-.372.744-.775,1.47l-5.246-2.912Q68.49,53.883,69.02,52.726ZM66.56,57.159l5.007,3.307q-.414.627-.851,1.236h0l-.068.094v0l-.026.036v0l-.012.017,0,0-.012.016h0l-.012.017,0,0-.012.016,0,0-.01.014,0,0-.011.016,0,0-.01.014,0,0-.011.015,0,.006L70.5,62l-.006.008-.007.01-.005.007-.01.014-.005.007-.007.01-.007.01-.007.01-.006.008-.007.01-.008.011-.005.007-.007.009-.009.012-.007.009,0,.006-.013.018,0,0-.008.011,0,0-.015.02,0,0-.025.034h0q-.248.334-.5.662L65.08,59.223Q65.858,58.221,66.56,57.159Zm-3.114,4.009L67.889,65.2q-.57.628-1.168,1.232h0l-.05.051,0,0-.029.029,0,0-.017.017,0,0-.009.009,0,0-.016.016,0,0-.012.012-.007.007-.008.008-.005.005-.013.013-.005.005-.008.008,0,0-.013.013-.006.006-.009.009-.01.01-.008.008-.006.006-.013.013-.006.006-.008.008-.008.008-.01.01-.007.007-.006.006-.012.012-.007.007-.007.007-.01.01-.008.008-.007.007-.01.01-.008.008-.008.007-.007.007-.012.012-.006.006-.009.009-.008.008-.01.009-.006.006-.012.012-.005.005-.01.01,0,0-.013.013-.005.005-.011.011-.006.006-.011.01-.006.006-.013.012,0,0-.01.01,0,0L66.148,67l-.005,0-.011.011-.006.006-.011.01-.005.005-.013.012-.005.005-.01.01,0,0-.013.012-.006.006-.01.01-.007.007-.01.009-.006.006-.012.012-.006.005L66,67.145l-.005,0-.013.012-.006.006-.011.01-.007.007-.01.01-.006.005-.012.012-.006.006-.009.009-.005,0-.013.012-.006.006-.01.009-.009.008-.008.008-.007.006-.012.011-.007.007-.008.007-.01.01-.008.007-.008.008-.006.005-.007.007-4.122-4.36Q62.591,62.11,63.446,61.168Zm-3.689,3.488,3.777,4.662q-.764.619-1.559,1.2h0l-.037.027h0l-.017.013,0,0-.016.012h0l-.016.012,0,0-.016.011,0,0-.012.009-.005,0-.014.01-.007,0-.011.008-.009.006-.01.007-.008.006-.011.008-.01.007-.006,0-.019.014h0l-.01.007,0,0-.019.014,0,0-.035.025h0q-.262.188-.527.371l-3.409-4.937Q58.77,65.456,59.757,64.656Zm-4.176,2.883,3.02,5.185q-1.292.753-2.648,1.409l-2.611-5.4Q54.487,68.177,55.581,67.539Zm-4.563,2.206L53.2,75.333q-1.391.544-2.833.984l-1.747-5.74Q49.842,70.206,51.018,69.745ZM46.173,71.22l1.3,5.858c-.587.13-1.18.247-1.776.35h0l-.21.036h0q-.48.08-.964.149l-.841-5.941Q44.941,71.493,46.173,71.22Zm-5.021.712.384,5.988q-.869.056-1.748.073H39V72Q40.084,72,41.151,71.931Zm-7.6-.379q1.244.207,2.518.319l-.525,5.977-.038,0-.042,0h0l-.042,0-.031,0h-.016l-.031,0h-.015l-.03,0-.017,0-.028,0-.018,0-.028,0-.018,0-.028,0-.018,0-.027,0-.019,0-.028,0h-.006l-.039,0h-.008l-.04,0-.03,0-.016,0-.028,0-.019,0-.028,0-.018,0-.028,0-.019,0-.026,0-.02,0-.026,0-.02,0-.027,0-.019,0-.027,0-.02,0-.026,0-.02,0-.026,0-.02,0-.026,0-.021,0-.025,0-.024,0-.022,0-.023,0-.022,0-.025,0-.021,0-.023,0-.023,0-.025,0-.021,0-.025,0-.021,0-.025,0-.021,0-.025,0-.021,0-.025,0-.021,0-.025,0-.021,0-.025,0-.021,0-.025,0-.02,0h0l-.025,0-.042-.006h0l-.042-.006-.025,0-.022,0-.025,0h0l-.023,0-.022,0h0l-.021,0h0l-.022,0h0l-.022,0h0l-.023,0h0l-.046-.006h0l-.046-.006h0l-.046-.007h0q-.428-.061-.853-.132Zm-4.918-1.213q1.2.4,2.435.7l-1.437,5.825-.011,0-.023-.006h0l-.013,0h0l-.024-.006h0l-.04-.01h0l-.04-.01h0l-.025-.006h0l-.013,0h0l-.024-.006h0l-.013,0h0l-.025-.006h0l-.041-.01h0l-.041-.01h0l-.024-.006h0l-.014,0h0l-.026-.007h0l-.041-.011h0l-.041-.011h0l-.042-.011h0l-.026-.007h0l-.042-.011h0l-.042-.011h0l-.042-.011h0l-.042-.011h0l-.026-.007h0l-.041-.011h0l-.041-.011h0l-.041-.011h0l-.024-.007h0l-.013,0h0l-.023-.006h0l-.013,0h0l-.024-.007-.006,0-.039-.011-.006,0-.021-.006-.006,0-.012,0-.006,0-.021-.006-.006,0-.012,0-.007,0-.018-.005-.008,0-.011,0-.011,0-.015,0-.008,0-.014,0-.012,0-.01,0-.01,0-.013,0-.012,0-.009,0-.011,0-.013,0-.011,0-.009,0-.014,0-.011,0-.011,0-.009,0-.016,0-.009,0-.011,0-.008,0-.017,0-.008,0-.014,0-.006,0-.017-.005-.007,0-.018-.005h0l-.016,0-.006,0-.019-.005h0l-.016,0h0l-.019-.006h0l-.018-.005h0l-.02-.006h0l-.042-.012h0l-.043-.013h0l-.022-.007h0q-.538-.161-1.07-.337Zm-4.673-1.958q1.125.577,2.3,1.07l-2.319,5.534q-1.388-.582-2.719-1.265Zm-4.321-2.656q1.026.745,2.11,1.412L18.6,72.248q-1.28-.787-2.493-1.668Zm-3.868-3.288q.9.894,1.871,1.718l-3.886,4.571q-1.143-.972-2.209-2.029h0ZM12.446,58.6q.756,1.022,1.587,1.983L9.5,64.506l0,0,0,0-.016-.019,0,0q-.779-.9-1.5-1.851h0l-.015-.02,0,0-.008-.01-.005-.007-.01-.013-.007-.009-.005-.007L7.9,62.543l0-.006-.012-.016h0L7.876,62.5l0,0-.013-.017h0q-.12-.159-.238-.319ZM9.752,54.3q.591,1.126,1.264,2.2L5.932,59.686q-.238-.38-.468-.766h0L5.45,58.9h0l-.021-.036,0,0-.012-.02,0,0-.006-.01,0-.006-.01-.017,0-.006-.006-.01,0-.006-.01-.016,0-.006-.01-.017,0-.005-.006-.01,0-.008L5.333,58.7l-.005-.009-.005-.009-.008-.013-.005-.009L5.3,58.65l0-.008-.009-.015,0-.007-.007-.013,0-.006-.009-.015,0-.006-.009-.016,0-.005-.008-.013,0-.005-.01-.017,0,0L5.22,58.5v0l-.01-.017,0,0-.01-.018h0l-.01-.018,0,0-.011-.019v0L5.161,58.4h0l-.011-.019v0l-.022-.039h0q-.355-.62-.688-1.255Zm-2-4.655q.41,1.2.909,2.366L3.149,54.378l0,0,0-.011-.005-.012,0-.011,0-.008-.007-.016,0-.006-.006-.015,0,0L3.1,54.272l0,0-.017-.039v0l-.009-.02h0l-.036-.086h0q-.181-.43-.352-.866h0L2.67,53.21v0l-.016-.041v0l-.008-.02v0l-.007-.019v0l-.008-.02v0l-.015-.04,0,0L2.6,53.036v0l-.006-.017,0,0-.007-.018,0-.006-.006-.016v0l-.007-.018,0-.006-.007-.018v0l-.006-.016,0-.006-.007-.018,0-.006-.005-.014,0-.006-.007-.018,0-.006-.005-.014,0-.007L2.511,52.8l0-.007L2.5,52.774l0-.006-.005-.014,0-.007-.006-.017,0-.007,0-.012,0-.007-.006-.017,0-.007,0-.013,0-.007-.006-.015,0-.008-.006-.016,0-.007,0-.013,0-.008-.006-.017,0-.007,0-.012,0-.007-.006-.017,0-.006L2.4,52.511l0-.005L2.4,52.489l0-.007-.007-.018,0,0-.005-.015,0-.006-.007-.018,0,0L2.363,52.4v0l-.007-.019,0-.005-.007-.018h0l-.007-.019,0-.005L2.33,52.31v0l-.006-.018v0l-.007-.02v0l-.007-.02h0L2.3,52.222v0q-.115-.32-.225-.642ZM6.5,44.737q.22,1.256.533,2.479L1.217,48.7q-.114-.446-.218-.9v0l-.01-.043v0l-.01-.042v0l-.005-.024v0l0-.013v0l0-.022v-.006l0-.012,0-.007,0-.019,0-.008,0-.011,0-.016,0-.009,0-.01,0-.009,0-.016,0-.009,0-.012,0-.009,0-.016,0-.008,0-.015v-.006l0-.017,0-.007,0-.019v0l0-.018v0l0-.02v0l0-.019v0l0-.021v0l0-.021v0l0-.022v0l-.01-.044h0l-.01-.045h0q-.149-.7-.273-1.408Zm-.489-5.053q.026,1.282.148,2.538L.183,42.8v0l0-.02v0l0-.021v0l0-.019v0l0-.02v-.027l0-.019v-.028l0-.018v-.028l0-.018v-.029l0-.017v-.111l0-.019v-.028l0-.019v-.026l0-.02v-.026l0-.022v-.024l0-.024v-.023l0-.023v-.022l0-.023V42.09l0-.023v-.023l0-.022V42l0-.02V41.4l0-.042v0l0-.043v0l0-.044v0l0-.045h0q-.039-.7-.054-1.41ZM.341,33.819l5.948.789q-.166,1.25-.237,2.529L.061,36.805.067,36.7h0l0-.044v0l0-.042v-.39h0l0-.021v0l0-.043v0l0-.043v0l0-.043v0l0-.044v0l0-.044v0l0-.044v0l0-.022h0l0-.021v0l0-.021v0l0-.021v0l0-.022v0l0-.02v0l0-.022v0l0-.02v0l0-.021v-.026l0-.02v0l0-.018v0l0-.02v0l0-.017v0l0-.02v-.027l0-.02v-.028l0-.018v-.029l0-.017v-.2l0-.018v-.026l0-.021v-.022l0-.025V35.1l0-.042v0l0-.043v0C.242,34.611.289,34.215.341,33.819Zm1.245-5.863,5.755,1.7q-.357,1.21-.622,2.457L.85,30.863q.039-.184.08-.368h0l.01-.045v0l.01-.043v0l0-.021v0l0-.018v0l0-.019v-.006l0-.015V30.31l0-.018,0-.008,0-.014,0-.011,0-.012,0-.009,0-.013,0-.013,0-.01,0-.01,0-.016,0-.011,0-.008,0-.02v-.005l0-.012v-.005l.005-.023v0l0-.013v-.005l.005-.023v0L1.043,30v0l.01-.041v0l.01-.041v0l.006-.027h0l0-.013v0l.006-.024v0l0-.014h0l.007-.028v0l.01-.041v0l.01-.04v0l.006-.025v0l0-.013v0l.005-.022v0l0-.012v-.006l.005-.02,0-.006,0-.012v0l.006-.022,0-.008,0-.011,0-.015,0-.01,0-.009,0-.013,0-.013,0-.01,0-.01,0-.013,0-.012,0-.009,0-.013,0-.011,0-.013,0-.007,0-.018v-.006l0-.015,0-.006,0-.019V29.3l0-.016v0l.005-.02v0l.005-.02h0l.005-.021v0l.011-.042v0Q1.408,28.559,1.586,27.956Zm2.135-5.6,5.425,2.564q-.54,1.143-.994,2.332L2.545,25.114q.125-.329.257-.655v0l.008-.021h0l.008-.019,0,0,.007-.019,0,0,.007-.016v0l.007-.018,0-.006.006-.014,0-.008.005-.013,0-.008.006-.015,0-.009,0-.01,0-.008.006-.015,0-.011,0-.007.008-.019,0-.006,0-.012v0l.009-.023v0l.016-.039v0q.318-.769.666-1.52h0l.012-.026h0l.006-.013h0l.011-.024,0,0,.005-.011,0-.009.007-.014,0-.008.006-.012.006-.012,0-.008.005-.011,0-.01.006-.013,0-.006L3.7,22.4l0,0,.007-.015,0,0,.009-.018Zm2.971-5.206,4.967,3.366q-.711,1.049-1.342,2.154L5.106,19.694c.13-.227.262-.454.4-.678h0l.022-.037,0,0,.012-.021,0,0,.007-.011h0l.013-.022,0-.006.009-.014.005-.008.005-.009.006-.009.007-.011.006-.01,0-.007.009-.015,0-.005.008-.013,0-.005.01-.016,0,0,.01-.017h0l.011-.017,0,0,.011-.017,0,0,.01-.017v0l.011-.019v0l.024-.039h0Q6.193,17.885,6.692,17.149Zm3.733-4.69,4.4,4.084q-.864.93-1.657,1.926L8.468,14.732q.168-.211.338-.419h0l.028-.034,0,0,.013-.016,0,0,.01-.012,0,0,.011-.014.005-.006.008-.01L8.9,14.2l.008-.01.006-.008.007-.008.011-.013,0,0,.026-.031,0,0L8.98,14.1h0q.659-.794,1.358-1.551h0l.028-.03,0,0,.013-.014.005-.006.007-.008.007-.008.009-.009.008-.009,0,0Zm4.4-4.067L18.55,13.1q-1,.789-1.931,1.651l-4.071-4.408q.538-.5,1.095-.974h0l.032-.028,0,0,.02-.017,0,0,.011-.009h0l.02-.017,0,0,.03-.025.005,0,.015-.013.006,0,.009-.007.007-.006.013-.011.008-.007.007-.006.013-.011.007-.006.01-.008.007-.006.011-.01.006-.005.014-.012,0,0,.011-.01,0,0,.015-.012,0,0,.013-.011,0,0,.014-.012,0,0,.015-.013,0,0,.015-.013h0l.017-.014,0,0,.034-.028h0Q14.442,8.7,14.828,8.392ZM19.8,5.045l2.958,5.22q-1.106.627-2.158,1.335L17.25,6.623q.5-.34,1.02-.664h0l.038-.024h0l.019-.012h0l.019-.012h0l.019-.012h0l.019-.012h0l.018-.011,0,0,.018-.011,0,0,.016-.01,0,0,.017-.011,0,0,.017-.011h0l.015-.009.005,0,.016-.01,0,0,.014-.009,0,0,.017-.01,0,0,.016-.01,0,0,.015-.01,0,0,.017-.01,0,0,.015-.009,0,0,.017-.01,0,0,.016-.01h0l.017-.01,0,0,.017-.01,0,0,.015-.009,0,0,.017-.011,0,0,.017-.01h0l.018-.011,0,0,.017-.011,0,0,.015-.009,0,0,.017-.01,0,0,.017-.01h0l.018-.011,0,0,.018-.011h0l.018-.011h0l.019-.011h0l.039-.023h0Q19.4,5.271,19.8,5.045ZM25.229,2.5l2.119,5.613q-1.19.449-2.335.986L22.466,3.668q1.353-.634,2.763-1.167ZM30.983.825,32.21,6.7q-1.247.261-2.459.614L28.073,1.551q.4-.117.809-.226h0l.045-.012h0l.022-.006h0l.021-.006h0l.021-.006h0l.042-.011h0l.041-.011h0l.02-.005h0l.018,0h0l.019-.005h.005l.016,0h0l.019,0h0l.017,0h0l.019,0h.005l.018,0h0l.018,0,.006,0,.019,0h0l.016,0,.007,0,.018,0h.005l.016,0h.005l.019,0,.006,0,.015,0h.006l.018,0,.007,0,.015,0h.006l.017,0,.006,0,.017,0,.006,0,.015,0,.006,0,.018,0,.006,0,.015,0h.006l.019,0h.006l.015,0h.005l.019,0h.006l.017,0h0l.019,0H29.7l.02,0h0l.019,0h0l.02,0h0l.018,0h0l.02,0h0l.019,0h0l.02,0h0l.019,0h0l.021,0h0l.042-.01h0l.022-.005h0l.021-.005h0l.022-.005h0l.022-.005h0l.022-.005h0l.044-.01h0l.045-.01h0Q30.568.912,30.983.825ZM36.928.054l.314,5.992q-1.278.067-2.53.23L33.941.325l.336-.042h0l.091-.011h0L34.46.261h0q.581-.067,1.167-.118h0l.046,0h.016l.032,0h.015l.032,0h.016l.031,0,.019,0,.028,0,.023,0,.024,0,.027,0,.021,0,.026,0,.022,0,.026,0,.023,0,.025,0,.023,0h0l.024,0,.022,0h0l.024,0Q36.551.074,36.928.054Z" transform="translate(391 1011)" fill="#656565"/>
    <text id="None" transform="translate(405 1057)" fill="#656565" font-size="19" font-family="NotoSansKR-Black, Noto Sans KR" font-weight="800"><tspan x="0" y="0">None</tspan></text>
  </g>
</svg>
